<svg width="161" height="27" viewBox="0 0 161 27" fill="none" xmlns="http://www.w3.org/2000/svg">
<path d="M1.95201 20.306C1.57067 20.306 1.25001 20.176 0.990006 19.916C0.730006 19.656 0.600006 19.3353 0.600006 18.954V1.352C0.600006 0.953333 0.730006 0.632666 0.990006 0.39C1.25001 0.13 1.57067 0 1.95201 0H7.15201C8.45201 0 9.60467 0.286 10.61 0.858C11.6153 1.43 12.3953 2.22733 12.95 3.25C13.522 4.25533 13.808 5.41667 13.808 6.734C13.808 7.99933 13.522 9.126 12.95 10.114C12.3953 11.102 11.6153 11.8733 10.61 12.428C9.60467 12.9827 8.45201 13.26 7.15201 13.26H3.30401V18.954C3.30401 19.3353 3.17401 19.656 2.91401 19.916C2.67134 20.176 2.35067 20.306 1.95201 20.306ZM3.30401 10.764H7.15201C8.33067 10.764 9.30134 10.3913 10.064 9.646C10.8267 8.88333 11.208 7.91267 11.208 6.734C11.208 5.902 11.0347 5.174 10.688 4.55C10.3413 3.90867 9.86467 3.406 9.25801 3.042C8.65134 2.678 7.94934 2.496 7.15201 2.496H3.30401V10.764Z" fill="#F6F4DD"/>
<path d="M22.4794 20.41C21.0754 20.41 19.8361 20.1067 18.7614 19.5C17.6867 18.876 16.8374 18.0267 16.2134 16.952C15.6067 15.86 15.3034 14.612 15.3034 13.208C15.3034 11.7867 15.6067 10.5387 16.2134 9.464C16.8374 8.372 17.6867 7.52267 18.7614 6.916C19.8361 6.292 21.0754 5.98 22.4794 5.98C23.8661 5.98 25.0967 6.292 26.1714 6.916C27.2461 7.52267 28.0867 8.372 28.6934 9.464C29.3174 10.5387 29.6294 11.7867 29.6294 13.208C29.6294 14.612 29.3261 15.86 28.7194 16.952C28.1127 18.0267 27.2721 18.876 26.1974 19.5C25.1227 20.1067 23.8834 20.41 22.4794 20.41ZM22.4794 18.07C23.3807 18.07 24.1781 17.862 24.8714 17.446C25.5647 17.03 26.1021 16.458 26.4834 15.73C26.8821 15.002 27.0814 14.1613 27.0814 13.208C27.0814 12.2547 26.8821 11.414 26.4834 10.686C26.1021 9.94067 25.5647 9.36 24.8714 8.944C24.1781 8.528 23.3807 8.32 22.4794 8.32C21.5781 8.32 20.7807 8.528 20.0874 8.944C19.3941 9.36 18.8481 9.94067 18.4494 10.686C18.0507 11.414 17.8514 12.2547 17.8514 13.208C17.8514 14.1613 18.0507 15.002 18.4494 15.73C18.8481 16.458 19.3941 17.03 20.0874 17.446C20.7807 17.862 21.5781 18.07 22.4794 18.07Z" fill="#F6F4DD"/>
<path d="M34.9023 26.39C34.521 26.39 34.2003 26.26 33.9403 26C33.6977 25.7573 33.5763 25.4453 33.5763 25.064V13.208C33.5937 11.8387 33.9143 10.608 34.5383 9.516C35.1623 8.424 36.0117 7.566 37.0863 6.942C38.161 6.30067 39.3743 5.98 40.7263 5.98C42.0957 5.98 43.3177 6.30067 44.3923 6.942C45.467 7.566 46.3163 8.424 46.9403 9.516C47.5817 10.608 47.9023 11.8387 47.9023 13.208C47.9023 14.5773 47.6077 15.808 47.0183 16.9C46.4463 17.9747 45.6577 18.8327 44.6523 19.474C43.647 20.098 42.5117 20.41 41.2463 20.41C40.2237 20.41 39.279 20.202 38.4123 19.786C37.563 19.3527 36.835 18.772 36.2283 18.044V25.064C36.2283 25.4453 36.107 25.7573 35.8643 26C35.6217 26.26 35.301 26.39 34.9023 26.39ZM40.7263 18.07C41.6103 18.07 42.399 17.862 43.0923 17.446C43.7857 17.0127 44.3317 16.432 44.7303 15.704C45.1463 14.9587 45.3543 14.1267 45.3543 13.208C45.3543 12.272 45.1463 11.44 44.7303 10.712C44.3317 9.96667 43.7857 9.386 43.0923 8.97C42.399 8.53667 41.6103 8.32 40.7263 8.32C39.8597 8.32 39.071 8.53667 38.3603 8.97C37.667 9.386 37.121 9.96667 36.7223 10.712C36.3237 11.44 36.1243 12.272 36.1243 13.208C36.1243 14.1267 36.3237 14.9587 36.7223 15.704C37.121 16.432 37.667 17.0127 38.3603 17.446C39.071 17.862 39.8597 18.07 40.7263 18.07Z" fill="#F6F4DD"/>
<path d="M64.0508 20.306C63.3748 20.306 62.9241 19.9507 62.6988 19.24L57.4728 1.872C57.2994 1.3 57.3081 0.849333 57.4988 0.52C57.7068 0.173333 58.0361 0 58.4868 0C58.7814 0 59.0501 0.0866666 59.2928 0.26C59.5354 0.416 59.7088 0.667333 59.8128 1.014L64.0768 15.834L68.0028 1.17C68.0721 0.909999 68.2281 0.693333 68.4708 0.52C68.7134 0.346666 68.9908 0.26 69.3028 0.26C69.5801 0.26 69.8401 0.338 70.0828 0.494C70.3428 0.632667 70.5074 0.849333 70.5768 1.144L74.5548 15.938L78.8708 0.883999C79.0441 0.294666 79.4861 0 80.1968 0C80.6821 0 80.9941 0.190666 81.1328 0.571999C81.2714 0.935999 81.2714 1.36933 81.1328 1.872L75.9068 19.214C75.7854 19.5433 75.6034 19.812 75.3608 20.02C75.1354 20.2107 74.8668 20.306 74.5548 20.306C74.2254 20.306 73.9394 20.202 73.6968 19.994C73.4714 19.786 73.3068 19.5347 73.2028 19.24L69.3288 4.264L65.4028 19.214C65.2814 19.5433 65.0994 19.812 64.8568 20.02C64.6314 20.2107 64.3628 20.306 64.0508 20.306Z" fill="#F6F4DD"/>
<path d="M87.454 20.41C86.05 20.41 84.8107 20.1067 83.736 19.5C82.6614 18.876 81.812 18.0267 81.188 16.952C80.5814 15.86 80.278 14.612 80.278 13.208C80.278 11.7867 80.5814 10.5387 81.188 9.464C81.812 8.372 82.6614 7.52267 83.736 6.916C84.8107 6.292 86.05 5.98 87.454 5.98C88.8407 5.98 90.0714 6.292 91.146 6.916C92.2207 7.52267 93.0614 8.372 93.668 9.464C94.292 10.5387 94.604 11.7867 94.604 13.208C94.604 14.612 94.3007 15.86 93.694 16.952C93.0874 18.0267 92.2467 18.876 91.172 19.5C90.0974 20.1067 88.858 20.41 87.454 20.41ZM87.454 18.07C88.3554 18.07 89.1527 17.862 89.846 17.446C90.5394 17.03 91.0767 16.458 91.458 15.73C91.8567 15.002 92.056 14.1613 92.056 13.208C92.056 12.2547 91.8567 11.414 91.458 10.686C91.0767 9.94067 90.5394 9.36 89.846 8.944C89.1527 8.528 88.3554 8.32 87.454 8.32C86.5527 8.32 85.7554 8.528 85.062 8.944C84.3687 9.36 83.8227 9.94067 83.424 10.686C83.0254 11.414 82.826 12.2547 82.826 13.208C82.826 14.1613 83.0254 15.002 83.424 15.73C83.8227 16.458 84.3687 17.03 85.062 17.446C85.7554 17.862 86.5527 18.07 87.454 18.07Z" fill="#F6F4DD"/>
<path d="M99.8769 20.332C99.4956 20.332 99.1749 20.2107 98.9149 19.968C98.6723 19.708 98.5509 19.3873 98.5509 19.006V7.41C98.5509 7.01133 98.6723 6.69067 98.9149 6.448C99.1749 6.20533 99.4956 6.084 99.8769 6.084C100.276 6.084 100.596 6.20533 100.839 6.448C101.082 6.69067 101.203 7.01133 101.203 7.41V7.696C101.74 7.15867 102.39 6.734 103.153 6.422C103.916 6.11 104.739 5.954 105.623 5.954C106.819 5.954 107.885 6.214 108.821 6.734C109.774 7.23667 110.52 7.982 111.057 8.97C111.612 9.958 111.889 11.1713 111.889 12.61V19.006C111.889 19.3873 111.759 19.708 111.499 19.968C111.256 20.2107 110.944 20.332 110.563 20.332C110.182 20.332 109.861 20.2107 109.601 19.968C109.358 19.708 109.237 19.3873 109.237 19.006V12.61C109.237 11.1367 108.838 10.062 108.041 9.386C107.261 8.69267 106.282 8.346 105.103 8.346C104.375 8.346 103.716 8.49333 103.127 8.788C102.538 9.08267 102.07 9.48133 101.723 9.984C101.376 10.4693 101.203 11.0327 101.203 11.674V19.006C101.203 19.3873 101.082 19.708 100.839 19.968C100.596 20.2107 100.276 20.332 99.8769 20.332Z" fill="#F6F4DD"/>
<path d="M122.722 20.41C121.37 20.41 120.148 20.098 119.056 19.474C117.981 18.8327 117.123 17.966 116.482 16.874C115.858 15.782 115.546 14.5513 115.546 13.182C115.546 11.8127 115.832 10.5907 116.404 9.516C116.993 8.424 117.79 7.566 118.796 6.942C119.801 6.30067 120.936 5.98 122.202 5.98C123.224 5.98 124.169 6.19667 125.036 6.63C125.902 7.046 126.63 7.618 127.22 8.346V1.326C127.22 0.927333 127.341 0.606667 127.584 0.364C127.844 0.121333 128.164 0 128.546 0C128.944 0 129.265 0.121333 129.508 0.364C129.75 0.606667 129.872 0.927333 129.872 1.326V13.182C129.872 14.5513 129.551 15.782 128.91 16.874C128.286 17.966 127.436 18.8327 126.362 19.474C125.287 20.098 124.074 20.41 122.722 20.41ZM122.722 18.07C123.606 18.07 124.394 17.862 125.088 17.446C125.781 17.0127 126.327 16.4233 126.726 15.678C127.124 14.9327 127.324 14.1007 127.324 13.182C127.324 12.246 127.124 11.414 126.726 10.686C126.327 9.958 125.781 9.386 125.088 8.97C124.394 8.53667 123.606 8.32 122.722 8.32C121.855 8.32 121.066 8.53667 120.356 8.97C119.662 9.386 119.108 9.958 118.692 10.686C118.293 11.414 118.094 12.246 118.094 13.182C118.094 14.1007 118.293 14.9327 118.692 15.678C119.108 16.4233 119.662 17.0127 120.356 17.446C121.066 17.862 121.855 18.07 122.722 18.07Z" fill="#F6F4DD"/>
<path d="M141.237 20.41C139.798 20.41 138.516 20.1067 137.389 19.5C136.28 18.876 135.404 18.0267 134.763 16.952C134.139 15.86 133.827 14.612 133.827 13.208C133.827 11.7867 134.122 10.5387 134.711 9.464C135.318 8.372 136.15 7.52267 137.207 6.916C138.264 6.292 139.478 5.98 140.847 5.98C142.199 5.98 143.36 6.28333 144.331 6.89C145.302 7.47933 146.038 8.30267 146.541 9.36C147.061 10.4 147.321 11.6047 147.321 12.974C147.321 13.3033 147.208 13.5807 146.983 13.806C146.758 14.014 146.472 14.118 146.125 14.118H136.245C136.436 15.314 136.982 16.2933 137.883 17.056C138.802 17.8013 139.92 18.174 141.237 18.174C141.774 18.174 142.32 18.0787 142.875 17.888C143.447 17.68 143.906 17.446 144.253 17.186C144.513 16.9953 144.79 16.9 145.085 16.9C145.397 16.8827 145.666 16.9693 145.891 17.16C146.186 17.42 146.342 17.706 146.359 18.018C146.376 18.33 146.238 18.5987 145.943 18.824C145.354 19.292 144.617 19.6733 143.733 19.968C142.866 20.2627 142.034 20.41 141.237 20.41ZM140.847 8.216C139.564 8.216 138.533 8.57133 137.753 9.282C136.973 9.99267 136.479 10.9113 136.271 12.038H144.929C144.773 10.9287 144.348 10.0187 143.655 9.308C142.962 8.58 142.026 8.216 140.847 8.216Z" fill="#F6F4DD"/>
<path d="M152.003 20.306C151.137 20.306 150.703 19.8727 150.703 19.006V7.384C150.703 6.51733 151.137 6.084 152.003 6.084C152.87 6.084 153.303 6.51733 153.303 7.384V7.878C153.823 7.27133 154.456 6.79467 155.201 6.448C155.964 6.10133 156.787 5.928 157.671 5.928C158.711 5.928 159.483 6.10133 159.985 6.448C160.505 6.77733 160.705 7.176 160.583 7.644C160.497 8.008 160.323 8.25067 160.063 8.372C159.803 8.476 159.5 8.49333 159.153 8.424C158.044 8.19867 157.047 8.18133 156.163 8.372C155.279 8.56267 154.577 8.918 154.057 9.438C153.555 9.958 153.303 10.6167 153.303 11.414V19.006C153.303 19.8727 152.87 20.306 152.003 20.306Z" fill="#F6F4DD"/>
</svg>
